<?xml version="1.0" standalone="no"?>
<!DOCTYPE svg PUBLIC "-//W3C//DTD SVG 20010904//EN"
 "http://www.w3.org/TR/2001/REC-SVG-20010904/DTD/svg10.dtd">
<svg version="1.0" xmlns="http://www.w3.org/2000/svg"
 width="512.000000pt" height="512.000000pt" viewBox="0 0 512.000000 512.000000"
 preserveAspectRatio="xMidYMid meet">
<metadata>
Created by potrace 1.16, written by Peter Selinger 2001-2019
</metadata>
<g transform="translate(0.000000,512.000000) scale(0.100000,-0.100000)"
fill="#000000" stroke="none">
<path d="M0 2560 l0 -2560 2560 0 2560 0 0 2560 0 2560 -1163 0 c-924 0 -1164
-3 -1164 -12 -3 -76 -16 -195 -21 -200 -4 -4 -23 -11 -41 -14 l-34 -7 5 116 5
117 -1353 0 -1354 0 0 -2560z m2775 2285 c0 -31 -11 -33 -18 -4 -5 18 -11 20
-32 15 -17 -4 -24 -3 -20 4 3 5 21 10 38 10 27 0 32 -4 32 -25z m-5 -90 c0
-16 -9 -19 -34 -9 -20 8 -11 24 15 24 10 0 19 -7 19 -15z m880 -12 c11 -10
-19 -38 -44 -41 -20 -3 -28 2 -35 20 -5 13 -7 26 -5 30 4 7 74 -1 84 -9z
m-1900 -167 c0 -2 -7 -7 -16 -10 -8 -3 -12 -2 -9 4 6 10 25 14 25 6z m2808
-958 c-2 -18 -12 -24 -46 -30 -54 -9 -131 -51 -170 -92 -41 -43 -80 -118 -88
-172 -6 -45 -26 -66 -45 -47 -13 13 8 107 37 163 46 89 119 151 211 180 81 26
105 26 101 -2z m157 -8 c66 -29 119 -74 159 -133 42 -64 76 -181 58 -199 -17
-17 -42 -1 -42 26 0 44 -39 133 -79 178 -45 51 -123 96 -183 106 -35 6 -44 12
-46 31 -4 23 -2 23 45 16 26 -3 66 -15 88 -25z m-155 -123 l0 -94 -37 -11
c-37 -12 -38 -11 -90 40 -78 77 -70 101 47 139 84 27 80 31 80 -74z m150 54
c30 -14 56 -34 58 -43 2 -9 -21 -41 -50 -72 l-53 -56 -42 12 -43 12 0 94 0 93
38 -7 c20 -3 62 -18 92 -33z m-300 -117 c28 -26 50 -52 50 -59 0 -7 -29 -31
-64 -55 -49 -32 -72 -41 -98 -38 -31 3 -33 5 -30 38 6 61 58 160 84 160 5 0
31 -21 58 -46z m418 14 c25 -40 56 -144 47 -158 -14 -23 -69 -9 -131 33 -35
23 -64 45 -64 48 0 10 108 109 119 109 5 0 18 -15 29 -32z m-213 -94 c19 -8
45 -55 45 -84 0 -12 -13 -35 -29 -51 -35 -35 -77 -38 -115 -8 -34 27 -37 91
-4 126 21 23 67 30 103 17z m-358 -145 c21 -110 105 -206 214 -244 23 -8 52
-15 65 -15 19 0 24 -5 24 -25 0 -14 -2 -25 -5 -25 -26 0 -120 27 -155 45 -53
27 -129 105 -158 161 -22 44 -45 141 -36 155 3 5 13 9 22 9 13 0 20 -15 29
-61z m140 20 c35 -23 63 -45 63 -49 0 -4 -25 -31 -55 -59 -62 -59 -71 -58
-105 10 -22 42 -41 119 -34 131 13 21 71 6 131 -33z m478 31 c9 -15 -23 -119
-47 -152 -10 -16 -26 -28 -34 -28 -16 0 -114 87 -114 101 0 4 28 26 62 48 62
40 119 54 133 31z m61 -37 c-10 -67 -58 -163 -109 -213 -46 -48 -139 -95 -204
-105 -41 -6 -43 -5 -43 18 0 21 6 25 45 30 100 14 206 101 244 200 11 32 21
68 21 81 0 28 7 36 33 36 17 0 19 -5 13 -47z m-415 -65 l39 -11 0 -93 0 -93
-32 5 c-66 13 -158 62 -158 85 0 9 99 119 107 119 3 0 23 -5 44 -12z m196 -40
c29 -29 53 -60 53 -70 0 -18 -101 -72 -157 -83 l-33 -7 0 95 0 94 33 11 c49
15 48 16 104 -40z"/>
<path d="M4537 3302 c-24 -27 -21 -59 8 -78 23 -15 27 -15 50 0 29 19 33 56 9
80 -21 21 -47 20 -67 -2z"/>
</g>
</svg>
